<?xml version="1.0" encoding="utf-8"?>
<!-- Generator: Adobe Illustrator 27.5.0, SVG Export Plug-In . SVG Version: 6.00 Build 0)  -->
<svg version="1.1" id="Layer_1" xmlns="http://www.w3.org/2000/svg" xmlns:xlink="http://www.w3.org/1999/xlink" x="0px" y="0px"
	 viewBox="0 0 200 126.4" style="enable-background:new 0 0 200 126.4;" xml:space="preserve">
<style type="text/css">
	.st0{clip-path:url(#SVGID_00000005258328460595170870000011780355527214519191_);}
	.st1{clip-path:url(#SVGID_00000064332221166883225840000017155246317615734974_);}
	
		.st2{clip-path:url(#SVGID_00000029737836985050403600000014978933402049227186_);fill:url(#SVGID_00000163067072935404185310000014862087618807709579_);}
	
		.st3{clip-path:url(#SVGID_00000111153877947462296030000015442415776248660643_);fill:url(#SVGID_00000088846231365685276810000000177157950432362686_);}
	
		.st4{clip-path:url(#SVGID_00000062166413418638907430000008848537303556446389_);fill:url(#SVGID_00000151533107293018519800000013194442961277213872_);}
	
		.st5{clip-path:url(#SVGID_00000091730979444615574300000002064607068160941714_);fill:url(#SVGID_00000060004487125797623380000012793198125634145422_);}
	
		.st6{clip-path:url(#SVGID_00000158742113076846645950000007320746169671926691_);fill:url(#SVGID_00000101074734586649243540000010866078843406272177_);}
	
		.st7{clip-path:url(#SVGID_00000093141912517048561190000008425985548105893562_);fill:url(#SVGID_00000026130845392023725830000007623447155278047410_);}
	
		.st8{clip-path:url(#SVGID_00000168095848500291961160000011392995869292226469_);fill:url(#SVGID_00000140697638629703068800000015931694640379716263_);}
	
		.st9{clip-path:url(#SVGID_00000001666312357374916830000006457373453972112038_);fill:url(#SVGID_00000173881669897858398180000010214489007970487686_);}
	
		.st10{clip-path:url(#SVGID_00000013893413661926681360000017048882626481924524_);fill:url(#SVGID_00000175317502630083772000000011057187176955263885_);}
	.st11{fill:#005DAA;}
	.st12{fill:#0060A8;}
	.st13{fill:#FFFFFF;}
	.st14{fill:#E8A714;}
	.st15{fill:#231F20;}
</style>
<g>
	<g>
		<g>
			<defs>
				<path id="SVGID_1_" d="M199.8,20.3v98.6c-0.1,4.1-3.4,7.4-7.4,7.4H7.8c-4.1,0-7.4-3.3-7.4-7.4l0-110.7c0-4.1,3.3-7.4,7.4-7.4
					h172.5"/>
			</defs>
			<clipPath id="SVGID_00000024710627616467510520000001458251712262580355_">
				<use xlink:href="#SVGID_1_"  style="overflow:visible;"/>
			</clipPath>
			<g style="clip-path:url(#SVGID_00000024710627616467510520000001458251712262580355_);">
				<g>
					<g>
						<defs>
							
								<rect id="SVGID_00000094599374703604235910000011143067963081230481_" x="-13.3" y="-24.8" transform="matrix(0.9594 -0.2819 0.2819 0.9594 -13.8558 30.7909)" width="226.7" height="176.6"/>
						</defs>
						<clipPath id="SVGID_00000084496496842384810680000011990437003727575436_">
							<use xlink:href="#SVGID_00000094599374703604235910000011143067963081230481_"  style="overflow:visible;"/>
						</clipPath>
						
							<g transform="matrix(1 0 0 1 1.334061e-006 -1.550685e-006)" style="clip-path:url(#SVGID_00000084496496842384810680000011990437003727575436_);">
							
								<image style="overflow:visible;enable-background:new    ;" width="1117" height="979" xlink:href="3CAB8550EF75D069.jpeg"  transform="matrix(0.2385 0 0 0.2385 -33.1113 -53.1357)">
							</image>
						</g>
					</g>
				</g>
			</g>
		</g>
	</g>
	<g>
		<g>
			<defs>
				<polyline id="SVGID_00000166638394819877779920000000854741102157220485_" points="62.9,86.8 50.1,85.2 45.2,86.8 				"/>
			</defs>
			<clipPath id="SVGID_00000095325214246305869410000000288040234905172404_">
				<use xlink:href="#SVGID_00000166638394819877779920000000854741102157220485_"  style="overflow:visible;"/>
			</clipPath>
			
				<linearGradient id="SVGID_00000160149908121204461850000016412235799128693120_" gradientUnits="userSpaceOnUse" x1="-1244.4446" y1="244.2382" x2="-1243.0203" y2="244.2382" gradientTransform="matrix(-2.8453 -6.6186 6.6186 -2.8453 -5100.9194 -7450.0903)">
				<stop  offset="0" style="stop-color:#EBB037"/>
				<stop  offset="0.3893" style="stop-color:#F0C067"/>
				<stop  offset="0.7967" style="stop-color:#F4CF8C"/>
				<stop  offset="1" style="stop-color:#F5D59B"/>
			</linearGradient>
			
				<polygon style="clip-path:url(#SVGID_00000095325214246305869410000000288040234905172404_);fill:url(#SVGID_00000160149908121204461850000016412235799128693120_);" points="
				48,93.3 44.6,85.5 60.2,78.8 63.5,86.6 			"/>
		</g>
	</g>
	<g>
		<g>
			<defs>
				<path id="SVGID_00000158020610901471137840000016732027195471716760_" d="M199.7,48.8l-10.8-1.4l-11-1.4l-9.8-1.4l4.3-1.5
					l9.6,1.4l5.4,0.7c2.1,0.3,3.9,0.5,5.5,0.6h0c3.2,0.3,5.4,0.4,6.9,0.4"/>
			</defs>
			<clipPath id="SVGID_00000098202136149699688240000001469535590091703702_">
				<use xlink:href="#SVGID_00000158020610901471137840000016732027195471716760_"  style="overflow:visible;"/>
			</clipPath>
			
				<linearGradient id="SVGID_00000156555695180086225980000002581849963300353463_" gradientUnits="userSpaceOnUse" x1="-1121.2683" y1="218.7372" x2="-1119.8436" y2="218.7372" gradientTransform="matrix(22.2587 0 0 22.2587 25125.9844 -4822.7964)">
				<stop  offset="0" style="stop-color:#EBB037"/>
				<stop  offset="0.3893" style="stop-color:#F0C067"/>
				<stop  offset="0.7967" style="stop-color:#F4CF8C"/>
				<stop  offset="1" style="stop-color:#F5D59B"/>
			</linearGradient>
			
				<rect x="168" y="43.2" style="clip-path:url(#SVGID_00000098202136149699688240000001469535590091703702_);fill:url(#SVGID_00000156555695180086225980000002581849963300353463_);" width="31.7" height="5.7"/>
		</g>
	</g>
	<g>
		<g>
			<defs>
				<path id="SVGID_00000115473207111167035400000015471141060969870210_" d="M199.7,43.2c-4.1-0.5-8.4-1.2-7.3-1.6
					c0.6-0.2,2.1-0.2,4-0.1c1,0.1,2.1,0.2,3.3,0.3l0-1.7l-3.9-0.5l-9.1-1.3l-3.3,1.1l5.9,0.9c-5.7-0.3-8.2-0.2-9.4,0.2
					c-2,0.7,0.8,1.6,6.2,2.6h0c2.8,0.5,6.2,1,10.1,1.5h0c0.1,0,0.2,0,0.3,0c1.2,0.1,2.2,0.3,3.2,0.4L199.7,43.2"/>
			</defs>
			<clipPath id="SVGID_00000044890646535643147770000007618743033227300766_">
				<use xlink:href="#SVGID_00000115473207111167035400000015471141060969870210_"  style="overflow:visible;"/>
			</clipPath>
			
				<linearGradient id="SVGID_00000077304207451744956480000003224365021803725472_" gradientUnits="userSpaceOnUse" x1="-1188.5596" y1="218.7051" x2="-1187.1348" y2="218.7051" gradientTransform="matrix(-6.9414 -16.1471 16.1471 -6.9414 -11585.248 -17614.3691)">
				<stop  offset="0" style="stop-color:#EBB037"/>
				<stop  offset="0.3893" style="stop-color:#F0C067"/>
				<stop  offset="0.7967" style="stop-color:#F4CF8C"/>
				<stop  offset="1" style="stop-color:#F5D59B"/>
			</linearGradient>
			
				<polygon style="clip-path:url(#SVGID_00000044890646535643147770000007618743033227300766_);fill:url(#SVGID_00000077304207451744956480000003224365021803725472_);" points="
				181.4,52.9 175.5,39.3 196.4,30.3 202.2,43.9 			"/>
		</g>
	</g>
	<g>
		<g>
			<defs>
				<path id="SVGID_00000023281195762222430610000006503086937845586573_" d="M109.8,86.9c-2.1-0.1-4.3-0.3-6.7-0.6l7.9-3.3
					c2.8,0.4,5,0.8,6.5,1.4l0,0c1.7,0.6,2.2,1.2,1.2,1.7c-0.9,0.4-2.4,0.7-4.2,0.8l21.6,0c1.3-1.9-2.8-3.9-10.9-5.7h0
					c-4-0.9-8.9-1.8-14.7-2.6l0,0c-1.3-0.2-2.5-0.3-3.9-0.5l-16.9,6.6c-6.8-0.9-9.9-2.1-9.1-3l0,0c0.1-0.1,0.4-0.3,0.7-0.4
					c0.3-0.1,0.8-0.2,1.3-0.3l0,0c1.7-0.3,4.5-0.4,8-0.2l8.5-3.2c-2.1-0.2-4.1-0.3-6-0.4l0,0c-13.8-0.7-23.1,0.6-28.3,2.3
					c-5.7,1.9-4.9,4.4,3.6,6.7l0,0c1,0.3,2.2,0.6,3.4,0.8"/>
			</defs>
			<clipPath id="SVGID_00000088848164856084051950000007454589075052933528_">
				<use xlink:href="#SVGID_00000023281195762222430610000006503086937845586573_"  style="overflow:visible;"/>
			</clipPath>
			
				<linearGradient id="SVGID_00000090283385102238137910000018292843274754897031_" gradientUnits="userSpaceOnUse" x1="-1174.5665" y1="209.9652" x2="-1173.1423" y2="209.9652" gradientTransform="matrix(-10.7545 -25.017 25.017 -10.7545 -17778.002 -27024.8184)">
				<stop  offset="0" style="stop-color:#EBB037"/>
				<stop  offset="0.3893" style="stop-color:#F0C067"/>
				<stop  offset="0.7967" style="stop-color:#F4CF8C"/>
				<stop  offset="1" style="stop-color:#F5D59B"/>
			</linearGradient>
			
				<polygon style="clip-path:url(#SVGID_00000088848164856084051950000007454589075052933528_);fill:url(#SVGID_00000090283385102238137910000018292843274754897031_);" points="
				71.2,115.3 55.2,78 125.1,47.9 141.1,85.2 			"/>
		</g>
	</g>
	<g>
		<g>
			<defs>
				<path id="SVGID_00000005267312025503383080000002358360977312204421_" d="M110.6,70.6l15,1.9l15,1.9l16.1,2l5.6-2.6l-11.6-1.5
					l0.1,0c9.8,0.7,15.5,0.6,17.7-0.5c0.2-0.1,0.3-0.3,0.4-0.4l-16.5-2.1l-5.6-0.7c-0.2,0.2-0.2,0.4-0.7,0.6c-2,0.8-5.9,1-13.2,0.4
					h0c-2.2-0.2-4.7-0.5-7.5-0.8l-7.3-0.9l-12.4-2.1l-7.9,2.7"/>
			</defs>
			<clipPath id="SVGID_00000176041253316130018290000012326084556009514426_">
				<use xlink:href="#SVGID_00000005267312025503383080000002358360977312204421_"  style="overflow:visible;"/>
			</clipPath>
			
				<linearGradient id="SVGID_00000019661271408853411770000012481676163158473098_" gradientUnits="userSpaceOnUse" x1="-1188.5607" y1="217.6662" x2="-1187.1357" y2="217.6662" gradientTransform="matrix(-6.9414 -16.1469 16.1469 -6.9414 -11626.0566 -17596.5566)">
				<stop  offset="0" style="stop-color:#EBB037"/>
				<stop  offset="0.3893" style="stop-color:#F0C067"/>
				<stop  offset="0.7967" style="stop-color:#F4CF8C"/>
				<stop  offset="1" style="stop-color:#F5D59B"/>
			</linearGradient>
			
				<polygon style="clip-path:url(#SVGID_00000176041253316130018290000012326084556009514426_);fill:url(#SVGID_00000019661271408853411770000012481676163158473098_);" points="
				108.8,102.2 93.9,67.5 157.7,40 172.6,74.8 			"/>
		</g>
	</g>
	<g>
		<g>
			<defs>
				<path id="SVGID_00000058571245334853611800000008248579943602461065_" d="M199.7,50c-0.6-0.1-1.2-0.2-1.9-0.3
					c-1.5-0.2-3.2-0.4-4.9-0.6l-6.2-0.8l-11.2-1.4l-3.1-0.4c-2.5-0.3-3.7-0.5-5-0.9l-1.1-0.5l-4.7,1.6l4.8,1
					c-6-0.1-8.8,0.2-10.6,0.8c-2.1,0.7-0.5,1.9,7.1,3l0,0c0.8,0.1,1.6,0.2,2.5,0.3c4.2,0.5,7.5,0.8,10.2,0.9l0,0
					c10.7,0.3,10.9-2.3,17.6-1.4c0.3,0,0.6,0.1,0.8,0.1l0,0c2.3,0.4,1.9,0.7,1.6,0.9c-0.5,0.2-1.4,0.4-4.2,0.2l0,0
					c-0.5,0-1-0.1-1.7-0.2l-4,1.7c0.6,0.1,1.1,0.1,1.6,0.2h0c5.1,0.6,9.1,0.8,12.4,0.7 M170.6,50.1c-1.2-0.2-2-0.3-2.4-0.5
					c-0.4-0.2-0.4-0.3,0.1-0.5c0.4-0.2,1.1-0.2,2-0.3c2.5-0.1,6.6,0.3,11,0.9C177,50,176.5,50.9,170.6,50.1z"/>
			</defs>
			<clipPath id="SVGID_00000006685293050805860070000005266799292823277753_">
				<use xlink:href="#SVGID_00000058571245334853611800000008248579943602461065_"  style="overflow:visible;"/>
			</clipPath>
			
				<linearGradient id="SVGID_00000032646792738805262350000003273350331442086807_" gradientUnits="userSpaceOnUse" x1="-1188.5618" y1="218.469" x2="-1187.1372" y2="218.469" gradientTransform="matrix(-6.9412 -16.1465 16.1465 -6.9412 -11594.4375 -17609.6074)">
				<stop  offset="0" style="stop-color:#EBB037"/>
				<stop  offset="0.3893" style="stop-color:#F0C067"/>
				<stop  offset="0.7967" style="stop-color:#F4CF8C"/>
				<stop  offset="1" style="stop-color:#F5D59B"/>
			</linearGradient>
			
				<polygon style="clip-path:url(#SVGID_00000006685293050805860070000005266799292823277753_);fill:url(#SVGID_00000032646792738805262350000003273350331442086807_);" points="
				160.8,71.8 150,46.7 192.5,28.4 203.4,53.6 			"/>
		</g>
	</g>
	<g>
		<g>
			<defs>
				<path id="SVGID_00000109745928669038283050000004872724951576722323_" d="M168.4,62.5L168.4,62.5c-3-0.6-6.6-1.1-10.7-1.7
					c-0.6-0.1-1.3-0.2-1.9-0.2c-5.2-0.6-10-1.1-14.2-1.3l0,0c-10.2-0.6-17.3-0.1-21,1.1c-3.8,1.3-2.5,3,4.9,4.7h0
					c3.2,0.8,7.5,1.5,13.1,2.2c0.3,0,0.6,0.1,0.9,0.1c5,0.6,9.7,1.1,14,1.4c12.1,0.8,20.5,0.3,23.9-1.3
					C180.7,66,177,64.2,168.4,62.5 M163,65.8c-0.6,0.3-1.7,0.4-3.2,0.4c-3.4,0-8.7-0.5-12.9-1c-0.7-0.1-1.3-0.2-2-0.3
					c-8.7-1.2-11.5-2.1-9.9-2.6c1.6-0.6,6.4-0.5,15.1,0.6l0,0c0.6,0.1,1.3,0.2,2,0.2c5,0.6,8.9,1.3,10.5,1.9h0
					C163.4,65.3,163.7,65.6,163,65.8z"/>
			</defs>
			<clipPath id="SVGID_00000078759895277370572220000008210463315124915111_">
				<use xlink:href="#SVGID_00000109745928669038283050000004872724951576722323_"  style="overflow:visible;"/>
			</clipPath>
			
				<linearGradient id="SVGID_00000163758340662793087150000007984458249557576069_" gradientUnits="userSpaceOnUse" x1="-1188.5601" y1="217.9774" x2="-1187.1351" y2="217.9774" gradientTransform="matrix(-6.9414 -16.1471 16.1471 -6.9414 -11615.5762 -17601.3379)">
				<stop  offset="0" style="stop-color:#EBB037"/>
				<stop  offset="0.3893" style="stop-color:#F0C067"/>
				<stop  offset="0.7967" style="stop-color:#F4CF8C"/>
				<stop  offset="1" style="stop-color:#F5D59B"/>
			</linearGradient>
			
				<polygon style="clip-path:url(#SVGID_00000078759895277370572220000008210463315124915111_);fill:url(#SVGID_00000163758340662793087150000007984458249557576069_);" points="
				126.8,92.9 112.8,60.4 170.7,35.5 184.7,68 			"/>
		</g>
	</g>
	<g>
		<g>
			<defs>
				<path id="SVGID_00000084507247844147672320000006517638693314666391_" d="M199.7,64c-7.5,0.1-17.6-0.5-30.2-2.1
					c-0.6-0.1-1.3-0.2-2-0.2c-4-0.5-7.6-1-10.8-1.5h0c-4.7-0.8-8.5-1.5-11.3-2.3l0,0c-6.4-1.7-8.1-3.3-4.3-4.6
					c3.3-1.1,10.3-1.4,19.6-1l0,0c4,0.2,8.5,0.6,13.3,1.1l0,0c1,0.1,1.9,0.2,2.9,0.3l-5.1,2.1c-1-0.1-2.1-0.2-3-0.3l0,0
					c-5.3-0.5-9.6-0.6-11.2,0c-1.9,0.7,0.7,1.5,5.3,2.3l0,0c2.7,0.5,6.1,1,9.7,1.4c0.9,0.1,1.8,0.2,2.7,0.3l0,0
					c11.6,1.4,18.5,1.6,20.1,0.9c1.5-0.7-1.5-1.7-8.3-2.7l4.7-2.1c3.3,0.5,5.7,0.8,8,1.3"/>
			</defs>
			<clipPath id="SVGID_00000150101236141065713780000006071755189429388700_">
				<use xlink:href="#SVGID_00000084507247844147672320000006517638693314666391_"  style="overflow:visible;"/>
			</clipPath>
			
				<linearGradient id="SVGID_00000105394630207571503850000012505595353467939480_" gradientUnits="userSpaceOnUse" x1="-1188.5596" y1="218.2563" x2="-1187.1349" y2="218.2563" gradientTransform="matrix(-6.9414 -16.1471 16.1471 -6.9414 -11601.0918 -17607.5645)">
				<stop  offset="0" style="stop-color:#EBB037"/>
				<stop  offset="0.3893" style="stop-color:#F0C067"/>
				<stop  offset="0.7967" style="stop-color:#F4CF8C"/>
				<stop  offset="1" style="stop-color:#F5D59B"/>
			</linearGradient>
			
				<polygon style="clip-path:url(#SVGID_00000150101236141065713780000006071755189429388700_);fill:url(#SVGID_00000105394630207571503850000012505595353467939480_);" points="
				147.1,86.8 132.9,53.8 190,29.2 204.2,62.2 			"/>
		</g>
	</g>
	<g>
		<g>
			<defs>
				<path id="SVGID_00000144314157764883808750000005746323039858996609_" d="M153.6,78.8l-1.6-0.1l3.1-1.5l-13.6-1.7l-3.3,1.5
					l-2.6-0.3l-15.3-1.9l-3.9-0.5c-5.5-0.7-7.2-1.1-5-1.9l1.2-0.5l-3.9-0.5l0,0l-12.9-1.6c-11,3-12.1,4.1,1,6
					c2.3,0.3,5.1,0.7,8.3,1.1l7.4,0.9h0l15.8,2l2.7,0.3l-2.7,1.2l14.4,1.8l2.6-1.2l1.7,0.1"/>
			</defs>
			<clipPath id="SVGID_00000133498794946445275560000005729772863558023351_">
				<use xlink:href="#SVGID_00000144314157764883808750000005746323039858996609_"  style="overflow:visible;"/>
			</clipPath>
			
				<linearGradient id="SVGID_00000107587814064056593370000016433153133836929437_" gradientUnits="userSpaceOnUse" x1="-1176.4846" y1="211.1209" x2="-1175.0598" y2="211.1209" gradientTransform="matrix(-10.0022 -23.2669 23.2669 -10.0022 -16553.3574 -25169.123)">
				<stop  offset="0" style="stop-color:#EBB037"/>
				<stop  offset="0.3893" style="stop-color:#F0C067"/>
				<stop  offset="0.7967" style="stop-color:#F4CF8C"/>
				<stop  offset="1" style="stop-color:#F5D59B"/>
			</linearGradient>
			
				<polygon style="clip-path:url(#SVGID_00000133498794946445275560000005729772863558023351_);fill:url(#SVGID_00000107587814064056593370000016433153133836929437_);" points="
				94.7,109 78.7,71.7 143.9,43.7 159.9,81 			"/>
		</g>
	</g>
	<path class="st11" d="M95.9,61.5l-0.1-2.2l-1.3,0.4c-2.3,0.7-2.6-0.3-2.8-3.3l-0.1-2.1L91.4,46l-0.1-1.4l4-1L95,36.1l-4,0.9
		l-0.4-10.3l-8.6,1.5l0.4,10.6l-3.4,0.7l0.3,7.9l3.2-0.8l0.1,1.5l0.3,8.7l0.2,4.1c0.1,1.8,0.2,3.3,0.3,4.6v0
		c0.8,7.3,3.3,7.2,12.7,3.2"/>
	<path class="st11" d="M97.9,60.9l-0.3-8.2l-0.3-8.2L97,35.7l7.1-1.5l0.2,6.4l0.1,0c0.9-5.2,2.6-7.9,5.5-8.5c0.3-0.1,0.6,0,0.9,0
		l0.3,9.1l0.1,3.1c-0.5,0-1-0.1-1.5,0c-2.3,0.6-3.7,2.4-4.1,6.3v0c-0.1,1.2-0.2,2.5-0.1,4.1l0.1,4l0.2,6.8l-7.8,2.6"/>
	<path class="st11" d="M131.3,42.1c-0.1-2.3-0.4-4.3-0.9-6v0c-1.4-5-4.6-7.6-8.9-6.7c-4.3,0.9-7.5,4.8-8.8,11.1l0,0
		c-0.4,2.2-0.6,4.7-0.5,7.5c0,0.2,0,0.3,0,0.5c0.2,3,0.7,5.5,1.5,7.4l0,0c0.6,1.3,1.3,2.4,2.1,3.2c1.9,1.8,4.3,2.2,6.9,1.3
		c3.6-1.2,6.5-4.5,7.8-9.8v0c0.5-2.2,0.8-4.7,0.8-7.5C131.3,42.8,131.3,42.4,131.3,42.1 M122.4,52.6c-1.6,0.5-2.8-1.3-3.2-6.1v0
		c0-0.4,0-0.7-0.1-1.1c-0.1-2.3,0.1-5.1,1.1-6.8v0c0.4-0.7,0.9-1.3,1.6-1.4c0.6-0.2,1.2,0,1.6,0.6l0,0c0.8,1.1,1.3,3.3,1.4,6
		c0,0.4,0,0.7,0,1.1v0C125,49.7,124,52.1,122.4,52.6z"/>
	<path class="st11" d="M152.9,43.6c0.5,4.2,2.5,5.5,4.6,4.8c1.8-0.6,3.1-1.8,4.4-4.9l0.3,2.5l4.7-1.6l0-0.5
		c-0.6-0.8-0.7-1.5-0.7-2.9l-0.1-1.7l-0.2-6.1l-0.1-3.4c0-0.9-0.1-1.9-0.1-2.7c-0.4-4.3-1.4-7-6-6c-4.5,1-6.4,4.2-6.4,9.1v0
		c0,0.3,0,0.6,0,0.9l4.7-1.2c0-0.3,0-0.6,0.1-0.9l0,0c0.2-1.4,1-1.8,1.5-2c0.5-0.1,1.4-0.1,1.6,1.2v0c0,0.1,0,0.3,0,0.5
		c0.1,3.7-5.5,2.6-7.6,8v0c-0.5,1.3-0.8,3.1-0.7,5.4C152.8,42.7,152.8,43.2,152.9,43.6 M160.5,41.2c-0.3,0.4-0.6,0.7-1.1,0.9
		c-0.5,0.1-0.8,0.1-1.1-0.2l0,0c-0.3-0.3-0.5-0.8-0.5-1.4c-0.1-3.2,2-3.1,3.5-5.1C161.5,37.8,161.3,40,160.5,41.2L160.5,41.2z"/>
	<path class="st11" d="M132,35.6c-0.2-12,4-20.1,9.4-21c5.8-1,9.1,3.9,9.9,12.9l-5.7,1.3c-0.3-3.8-1.6-5.7-3.6-5.3
		c-2.1,0.4-3.3,3.9-3.3,10.3v0c0,0.5,0,1,0,1.5c0.1,2,0.2,3.8,0.6,5.4v0c0.6,2.6,1.6,4.3,3.7,3.7c1.7-0.5,2.6-2.7,2.9-5.5
		c0.1-0.5,0.1-1.1,0.1-1.6l5.8-1.6c0,0.5,0,1.1-0.1,1.6c-0.1,2.6-0.6,4.9-1.2,7v0c-1.4,4.7-3.8,8-7.1,9.2c-3.7,1.3-6.8-0.2-8.8-4.2
		v0c-0.9-1.7-1.6-4-2.1-6.6v0c-0.3-1.8-0.5-3.8-0.6-6C132,36.3,132,36,132,35.6"/>
	<path class="st11" d="M167.7,39l-0.2-6l0,0l-0.2-6l-0.2-6.5l3.9-0.8l0.2,4.7l0,0c0.4-3.8,1.4-5.7,3-6.1c0.2,0,0.4,0,0.5,0l0.2,6.8
		l0.1,2.3c-0.3,0-0.6-0.1-0.8,0c-1.3,0.3-2.1,1.6-2.3,4.4v0c-0.1,0.9-0.1,1.8,0,3l0.1,3l0.2,5.1l-4.2,1.4"/>
	<path class="st12" d="M175.9,30.4C175.9,30.3,175.9,30.4,175.9,30.4"/>
	<path class="st11" d="M186.7,32.9L186.7,32.9l-0.2-5.5l-0.2-5.5l-0.5-13.9l-3.6,0.6l0.4,10.4c-0.9-2-1.7-2.5-2.9-2.2
		c-1.7,0.4-3,3.2-3.5,7.7l0,0c-0.2,1.7-0.3,3.8-0.2,5.8c0.1,2.1,0.3,4.1,0.7,5.7v0c0.8,3.1,2.2,4.9,4.1,4.3c1.2-0.4,2-1.6,2.8-4.5
		l0.1,2.9l3.3-1.1 M181.5,33.7c-1.2,0.4-1.6-2.2-1.7-4.4c-0.1-2.5,0.1-5.5,1.4-5.9c1.2-0.3,1.7,2.5,1.8,4.9
		C183.1,30.7,182.7,33.3,181.5,33.7z"/>
	<path class="st11" d="M71.4,66.2C71,68,70,69.3,68.9,70v0c-0.3,0.2-0.7,0.4-1,0.5c-0.4,0.1-0.7,0.2-1.1,0.2v0
		c-2.2,0-4.1-2.1-4.2-5.8l18.5-5.3c0-0.7-0.1-1.4-0.1-2.1l0,0c-0.2-3.2-0.9-6-1.8-8.4v0c-2.4-5.9-6.9-9-13.1-7.7
		C60,42.6,55,48,52.8,55.6c-0.8,2.8-1.2,6-1.1,9.3c0,0.2,0,0.5,0,0.7c0.2,3.7,1,6.7,2.3,9c2.8,5.2,7.9,6.7,13.5,4.8
		c5.1-1.7,10.2-5.7,12.2-12.8v0c0.3-1,0.5-2,0.7-3.1 M63.1,53.1c0.8-1.6,2-2.7,3.7-3.1c1.3-0.3,2.5,0.2,3.3,1.3v0
		c0.7,0.9,1.2,2.3,1.3,3.8l-9.1,2.4C62.2,55.8,62.5,54.3,63.1,53.1L63.1,53.1L63.1,53.1z"/>
	<path class="st11" d="M32.3,39.1l-5.6,31.6l-9.5-33.6L0.4,39.8l0,47.1l13.8,0l-0.3-10.5l-0.9-10.7l-0.8-6.5l0.1,0l8,27.7H33
		L38.9,53l0.1,0l-0.2,6.2l-0.1,3.8l0.1,6.4l0.6,17.5h3.4l8.4-2.9l-1.9-52.3l-4.7,0.6C41.9,35.2,37.4,38.1,32.3,39.1"/>
	<path class="st13" d="M16,81.8c1.8,0,3.3-1.5,3.3-3.3c0-1.8-1.5-3.3-3.3-3.3c-1.8,0-3.3,1.5-3.3,3.3C12.8,80.3,14.2,81.8,16,81.8"
		/>
	<polyline class="st13" points="14.3,121.7 18.1,117.6 5.5,121.7 18.1,125.3 	"/>
	<polyline class="st13" points="31.5,121.8 35.3,117.7 22.7,121.8 35.3,125.3 	"/>
	<polyline class="st13" points="57.2,120.8 50.6,120.8 53.5,117.6 40.9,121.7 53.5,125.3 50,122 57.2,122 	"/>
	<rect x="60.7" y="118" class="st13" width="1.1" height="5.3"/>
	<path class="st13" d="M66.4,123.3h-1V121c0-0.3,0-0.8-0.7-0.8c-0.5,0-0.8,0.3-0.8,0.9v2.3h-1v-3.9h1v0.6h0c0.1-0.2,0.4-0.7,1.2-0.7
		c0.8,0,1.4,0.4,1.4,1.3"/>
	<path class="st13" d="M69.8,120.6c0-0.3-0.1-0.5-0.7-0.5s-0.6,0.2-0.6,0.4c0,0.6,2.5,0.2,2.5,1.6c0,1.1-1.1,1.4-1.7,1.4
		c-0.9,0-1.9-0.3-1.9-1.4h1.1c0,0.3,0.2,0.6,0.9,0.6c0.5,0,0.7-0.3,0.7-0.4c0-0.7-2.4-0.2-2.4-1.6c0-0.6,0.4-1.3,1.6-1.3
		c0.8,0,1.7,0.2,1.8,1.3"/>
	<path class="st13" d="M75.2,122.2c-0.3,0.9-1.1,1.3-1.7,1.3c-1.1,0-2-0.5-2-2.1c0-0.5,0.2-2,1.9-2c0.8,0,1.8,0.4,1.8,2.2v0.2h-2.7
		c0,0.3,0.1,1,0.9,1c0.3,0,0.6-0.1,0.7-0.4 M74.1,121c-0.1-0.6-0.5-0.8-0.8-0.8c-0.5,0-0.7,0.3-0.8,0.8H74.1z"/>
	<path class="st13" d="M76,119.4h1v0.7h0c0.2-0.4,0.5-0.8,1.1-0.8c0.1,0,0.1,0,0.2,0v1c-0.1,0-0.2,0-0.3,0c-0.8,0-1,0.5-1,0.9v2h-1"
		/>
	<path class="st13" d="M80.2,119.4h0.6v0.7h-0.6v2.1c0,0.2,0,0.3,0.4,0.3c0.1,0,0.1,0,0.2,0v0.8c-0.2,0-0.3,0-0.5,0h-0.1
		c-0.9,0-1.1-0.3-1.1-0.8v-2.4h-0.5v-0.7h0.5v-1.1h1"/>
	<path class="st13" d="M85,119.4h0.6v0.7H85v2.1c0,0.2,0,0.3,0.4,0.3c0.1,0,0.1,0,0.2,0v0.8c-0.2,0-0.3,0-0.5,0H85
		c-0.9,0-1.1-0.3-1.1-0.8v-2.4h-0.5v-0.7H84v-1.1h1"/>
	<path class="st13" d="M90,123.3h-1V121c0-0.3,0-0.8-0.7-0.8c-0.5,0-0.8,0.3-0.8,0.9v2.3h-1V118h1v1.9h0c0.1-0.3,0.6-0.6,1.1-0.6
		c0.8,0,1.4,0.4,1.4,1.3"/>
	<path class="st13" d="M92.2,119.4v3.9h-1v-3.9 M92.2,118.9h-1v-1h1V118.9z"/>
	<path class="st13" d="M95.5,120.6c0-0.3-0.1-0.5-0.7-0.5c-0.6,0-0.6,0.2-0.6,0.4c0,0.6,2.5,0.2,2.5,1.6c0,1.1-1.1,1.4-1.7,1.4
		c-0.9,0-1.9-0.3-1.9-1.4h1.1c0,0.3,0.2,0.6,0.9,0.6c0.5,0,0.7-0.3,0.7-0.4c0-0.7-2.4-0.2-2.4-1.6c0-0.6,0.4-1.3,1.6-1.3
		c0.8,0,1.7,0.2,1.8,1.3"/>
	<polyline class="st13" points="103.8,123.3 102.8,123.3 102.2,120.5 102.1,120.5 101.5,123.3 100.5,123.3 99.4,119.4 100.5,119.4 
		101.1,122.2 101.1,122.2 101.6,119.4 102.7,119.4 103.3,122.2 103.3,122.2 103.9,119.4 105,119.4 	"/>
	<path class="st13" d="M108.8,122.6c0,0.5,0.1,0.6,0.2,0.6v0.2H108c-0.1-0.2-0.1-0.2-0.1-0.5c-0.2,0.2-0.6,0.6-1.3,0.6
		c-0.6,0-1.2-0.3-1.2-1.1c0-0.8,0.5-1.2,1.1-1.3l0.9-0.1c0.2,0,0.4-0.1,0.4-0.3c0-0.4-0.4-0.5-0.7-0.5c-0.5,0-0.6,0.3-0.6,0.5h-1
		c0.1-1.2,1-1.4,1.8-1.4c0.6,0,1.6,0.2,1.6,1.1 M107.8,121.4c-0.1,0.1-0.3,0.1-0.7,0.2c-0.4,0.1-0.7,0.2-0.7,0.6
		c0,0.4,0.3,0.5,0.5,0.5c0.5,0,0.9-0.3,0.9-0.8V121.4z"/>
	<path class="st13" d="M112.1,123.3c-0.5,1.5-0.6,1.6-1.5,1.6c-0.1,0-0.3,0-0.5,0v-0.8c0,0,0.1,0,0.2,0c0.4,0,0.6-0.1,0.7-0.6
		l-1.4-4.1h1.2l0.8,2.9h0l0.8-2.9h1.1"/>
	<polyline class="st13" points="117.1,123.5 115.5,123.5 117.2,117.9 118.7,117.9 	"/>
	<polyline class="st13" points="123.4,123.3 122.3,123.3 122.3,119 120.7,119 120.7,118 125,118 125,119 123.4,119 	"/>
	<path class="st13" d="M129.2,123.3h-1V121c0-0.3,0-0.8-0.7-0.8c-0.5,0-0.8,0.3-0.8,0.9v2.3h-1V118h1v1.9h0c0.1-0.3,0.6-0.6,1.1-0.6
		c0.8,0,1.4,0.4,1.4,1.3"/>
	<path class="st13" d="M131.4,119.4v3.9h-1v-3.9 M131.4,118.9h-1v-1h1V118.9z"/>
	<path class="st13" d="M134.8,120.6c0-0.3-0.1-0.5-0.7-0.5c-0.6,0-0.6,0.2-0.6,0.4c0,0.6,2.5,0.2,2.5,1.6c0,1.1-1.1,1.4-1.7,1.4
		c-0.9,0-1.9-0.3-1.9-1.4h1.1c0,0.3,0.2,0.6,0.9,0.6c0.5,0,0.7-0.3,0.7-0.4c0-0.7-2.4-0.2-2.4-1.6c0-0.6,0.4-1.3,1.6-1.3
		c0.8,0,1.7,0.2,1.8,1.3"/>
	<path class="st13" d="M141.2,120.6c0-0.3-0.1-0.5-0.7-0.5c-0.6,0-0.6,0.2-0.6,0.4c0,0.6,2.5,0.2,2.5,1.6c0,1.1-1.1,1.4-1.7,1.4
		c-0.9,0-1.9-0.3-1.9-1.4h1.1c0,0.3,0.2,0.6,0.9,0.6c0.5,0,0.7-0.3,0.7-0.4c0-0.7-2.4-0.2-2.4-1.6c0-0.6,0.4-1.3,1.6-1.3
		c0.8,0,1.7,0.2,1.8,1.3"/>
	<path class="st13" d="M144.3,119.4v3.9h-1v-3.9 M144.3,118.9h-1v-1h1V118.9z"/>
	<path class="st13" d="M149,123.3h-1v-0.5h0c-0.3,0.4-0.7,0.6-1.1,0.6c-1.2,0-1.7-1-1.7-2.1c0-1.4,0.8-2,1.6-2c0.7,0,1,0.4,1.1,0.6
		h0V118h1 M147.1,122.6c0.7,0,0.9-0.5,0.9-1.1c0-0.6-0.2-1.3-0.9-1.3c-0.7,0-0.9,0.6-0.9,1.2C146.3,121.9,146.5,122.6,147.1,122.6z"
		/>
	<path class="st13" d="M153.5,122.2c-0.3,0.9-1.1,1.3-1.7,1.3c-1.1,0-2-0.5-2-2.1c0-0.5,0.2-2,1.9-2c0.8,0,1.8,0.4,1.8,2.2v0.2h-2.7
		c0,0.3,0.1,1,0.9,1c0.3,0,0.6-0.1,0.7-0.4 M152.5,121c-0.1-0.6-0.5-0.8-0.8-0.8c-0.5,0-0.7,0.3-0.8,0.8H152.5z"/>
	<path class="st13" d="M157.8,123.3h-1v-3.2h-0.6v-0.7h0.6v-0.3c0-0.8,0.4-1.1,1.2-1.1c0.3,0,0.4,0,0.5,0v0.8h-0.3
		c-0.4,0-0.4,0.1-0.4,0.4v0.2h0.7v0.7h-0.7"/>
	<path class="st13" d="M162.3,122.6c0,0.5,0.1,0.6,0.2,0.6v0.2h-1.1c-0.1-0.2-0.1-0.2-0.1-0.5c-0.2,0.2-0.6,0.6-1.3,0.6
		c-0.6,0-1.2-0.3-1.2-1.1c0-0.8,0.5-1.2,1.1-1.3l0.9-0.1c0.2,0,0.4-0.1,0.4-0.3c0-0.4-0.4-0.5-0.7-0.5c-0.5,0-0.6,0.3-0.6,0.5h-1
		c0.1-1.2,1-1.4,1.8-1.4c0.6,0,1.6,0.2,1.6,1.1 M161.3,121.4c-0.1,0.1-0.3,0.1-0.7,0.2c-0.4,0.1-0.7,0.2-0.7,0.6
		c0,0.4,0.3,0.5,0.5,0.5c0.5,0,0.9-0.3,0.9-0.8V121.4z"/>
	<path class="st13" d="M166.8,121.9c0,0.4-0.4,1.5-1.8,1.5c-1.5,0-1.8-1.1-1.8-2c0-1.3,0.6-2.2,1.9-2.2c0.6,0,1.6,0.3,1.7,1.5h-1.1
		c0-0.3-0.2-0.7-0.7-0.6c-0.7,0-0.8,0.6-0.8,1.1c0,0.4,0,1.3,0.8,1.3c0.5,0,0.7-0.5,0.7-0.7"/>
	<path class="st13" d="M168.7,119.4v3.9h-1v-3.9 M168.7,118.9h-1v-1h1V118.9z"/>
	<path class="st13" d="M173.4,123.3h-1V121c0-0.3,0-0.8-0.7-0.8c-0.5,0-0.8,0.3-0.8,0.9v2.3h-1v-3.9h1v0.6h0
		c0.1-0.2,0.4-0.7,1.2-0.7c0.8,0,1.4,0.4,1.4,1.3"/>
	<path class="st13" d="M178.1,119.4v3.7c0,0.7-0.1,1.8-2,1.8c-0.8,0-1.7-0.3-1.7-1.2h1.1c0,0.2,0.1,0.4,0.7,0.4
		c0.6,0,0.8-0.3,0.8-0.9v-0.5l0,0c-0.2,0.3-0.4,0.6-1,0.6c-0.9,0-1.7-0.7-1.7-2c0-1.4,0.8-2,1.6-2c0.7,0,1,0.4,1.2,0.7h0v-0.6
		 M176.2,122.5c0.7,0,0.9-0.6,0.9-1.1c0-0.6-0.3-1.2-0.9-1.2c-0.4,0-0.8,0.3-0.8,1.2C175.4,121.9,175.6,122.5,176.2,122.5z"/>
	<path class="st13" d="M183.5,123.3c-0.5,1.5-0.6,1.6-1.5,1.6c-0.1,0-0.3,0-0.5,0v-0.8c0,0,0.1,0,0.2,0c0.4,0,0.6-0.1,0.7-0.6
		l-1.4-4.1h1.2l0.8,2.9h0l0.8-2.9h1.1"/>
	<path class="st13" d="M187.4,123.4c-1.1,0-2-0.6-2-2.1c0-1.4,1-2.1,2-2.1c1.1,0,2,0.6,2,2.1C189.4,122.8,188.5,123.4,187.4,123.4
		 M187.4,120.2c-0.8,0-0.9,0.7-0.9,1.2c0,0.5,0.1,1.2,0.9,1.2c0.8,0,0.9-0.7,0.9-1.2C188.4,120.9,188.2,120.2,187.4,120.2z"/>
	<path class="st13" d="M193.8,123.3h-1v-0.6h0c-0.2,0.4-0.7,0.7-1.2,0.7c-0.8,0-1.3-0.4-1.3-1.4v-2.6h1v2.4c0,0.6,0.4,0.7,0.7,0.7
		c0.3,0,0.8-0.2,0.8-0.9v-2.3h1"/>
	<path class="st14" d="M17.7,0.8c-2.4,1.6-4.5,3.6-6.1,6l5.8,1L19,20c0,0,0.1,0,0.1,0l1.8-11.6l5.8,1v18.8L23,28.9v-8.1
		c0,0,0.1-3.5,0.1-4.1c0,0-0.2,0-0.2,0l-2.2,12.6l-3.7,0.6l-2.7-13.5l-0.2,0c-0.1,0.5,0.2,4.7,0.2,4.7v9.3L12,30.8
		c3.8,5.3,10,8.7,17,8.7c7.8,0,21-6.9,21-21c0-7.5-3.7-14-9.6-17.7 M36.7,15.1l-2.3-0.2v12L31,27.5l0-12.9l-2.9-0.3V9.7l8.6,1.5
		C36.7,11.1,36.7,15.1,36.7,15.1z M43.2,25.4l-2,0.3L40.9,24l-2,0.3l-0.2,1.9l-2.6,0.5l2.6-15.2l2.4,0.4L43.2,25.4z M39.3,21.1
		l0.5-4.7H40l0.5,4.6L39.3,21.1z"/>
	<rect x="0.4" y="86.7" class="st15" width="199.3" height="29.5"/>
	<path class="st11" d="M188.2,35.9c0.5-0.1,0.9,0.1,0.9,0.6c0,0.5-0.4,1-0.9,1.1c-0.5,0.2-0.9-0.1-0.9-0.6
		C187.2,36.6,187.6,36.1,188.2,35.9 M188.2,36.1c-0.4,0.1-0.8,0.5-0.8,0.9c0,0.4,0.3,0.6,0.7,0.5c0.4-0.1,0.8-0.5,0.8-0.9
		C188.9,36.2,188.6,36,188.2,36.1L188.2,36.1z M188,37.3l-0.2,0l0-1c0.1,0,0.2-0.1,0.3-0.1c0.2,0,0.3,0,0.3,0s0.1,0.1,0.1,0.2
		c0,0.1-0.1,0.2-0.2,0.3v0c0.1,0,0.2,0,0.2,0.2c0,0.1,0,0.2,0.1,0.2l-0.2,0.1c0,0,0-0.1-0.1-0.2c0-0.1-0.1-0.1-0.2-0.1l-0.1,0
		L188,37.3z M188,36.8l0.1,0c0.1,0,0.3-0.1,0.3-0.2c0-0.1-0.1-0.1-0.3-0.1c-0.1,0-0.1,0-0.1,0L188,36.8z"/>
</g>
</svg>
